<?xml version="1.0" encoding="UTF-8"?>
<svg width="165px" height="73px" viewBox="0 0 165 73" version="1.1" xmlns="http://www.w3.org/2000/svg" xmlns:xlink="http://www.w3.org/1999/xlink">
    <!-- Generator: Sketch 52.2 (67145) - http://www.bohemiancoding.com/sketch -->
    <title>LOGO/white</title>
    <desc>Created with Sketch.</desc>
    <defs>
        <polygon id="path-1" points="0.619940299 0.494835821 4.49686567 0.494835821 4.49686567 7.31647761 0.619940299 7.31647761"></polygon>
        <polygon id="path-3" points="0.165328358 0.205223881 39.8457761 0.205223881 39.8457761 48.1754851 0.165328358 48.1754851"></polygon>
        <polygon id="path-5" points="0 72.238806 164.571493 72.238806 164.571493 0.205223881 0 0.205223881"></polygon>
    </defs>
    <g id="LOGO/white" stroke="none" stroke-width="1" fill="none" fill-rule="evenodd">
        <g id="Group-63">
            <polygon id="Fill-1" fill="#FEFEFE" points="34.282403 69.3327537 35.5277015 60.5606642 35.6721791 60.5606642 39.2381493 67.759097 42.7671791 60.5606642 42.9100149 60.5606642 44.1692687 69.3327537 43.3048657 69.3327537 42.4453881 63.0594701 39.3440448 69.3327537 39.1240448 69.3327537 35.9816567 63.0135 35.1287463 69.3327537"></polygon>
            <g id="Group-62" transform="translate(0.000000, 0.615754)">
                <path d="M48.8913881,62.8672985 C48.4275821,62.8672985 47.9982537,62.9822239 47.603403,63.2096119 C47.210194,63.4394627 46.8966119,63.758791 46.6651194,64.1741642 C46.432806,64.5878955 46.3170597,65.0254328 46.3170597,65.4843134 C46.3170597,65.9423731 46.432806,66.3799104 46.6667612,66.7977463 C46.9031791,67.2147612 47.2159403,67.538194 47.6132537,67.7729701 C48.0081045,68.0044627 48.4333284,68.120209 48.8856418,68.120209 C49.3428806,68.120209 49.7771343,68.0044627 50.1859403,67.7746119 C50.5947463,67.5447612 50.9099701,67.2328209 51.130791,66.838791 C51.3524328,66.4455821 51.4616119,66.0014776 51.4616119,65.5097612 C51.4616119,64.7586418 51.2137015,64.1290149 50.7195224,63.6249851 C50.2245224,63.1201343 49.6154179,62.8672985 48.8913881,62.8672985 Z M52.2316119,62.2286418 L52.2316119,68.717 L51.4090746,68.717 L51.4090746,67.6022239 C51.0593731,68.0266269 50.6661642,68.3467761 50.2302687,68.5618507 C49.795194,68.7761045 49.3190746,68.8836418 48.8019104,68.8836418 C47.8841493,68.8836418 47.100194,68.5503582 46.4492239,67.8846119 C45.7998955,67.2188657 45.474,66.4086418 45.474,65.4539403 C45.474,64.5205821 45.804,63.7226716 46.4590746,63.0585672 C47.1141493,62.3952836 47.9038507,62.062 48.8257164,62.062 C49.3592985,62.062 49.8419851,62.1752836 50.2713134,62.4018507 C50.7031045,62.6292388 51.0815373,62.9690896 51.4090746,63.421403 L51.4090746,62.2286418 L52.2316119,62.2286418 Z" id="Fill-2" fill="#FEFEFE"></path>
                <path d="M54.1097388,62.2283955 L54.9445896,62.2283955 L54.9445896,63.3924254 C55.2778731,62.9466791 55.6489179,62.6133955 56.0536194,62.3933955 C56.4583209,62.1733955 56.8999627,62.0617537 57.3785448,62.0617537 C57.8628731,62.0617537 58.2922015,62.185709 58.6689925,62.4319776 C59.0433209,62.6782463 59.3224254,63.0098881 59.4989179,63.426903 C59.678694,63.8447388 59.7681716,64.495709 59.7681716,65.3773507 L59.7681716,68.7167537 L58.9398881,68.7167537 L58.9398881,65.6211567 C58.9398881,64.8749627 58.9070522,64.3758582 58.8438433,64.1254851 C58.7445149,63.6961567 58.5589925,63.3743657 58.2839925,63.1568284 C58.0089925,62.9409328 57.6510821,62.8309328 57.2094403,62.8309328 C56.7045896,62.8309328 56.253097,62.9975746 55.8541418,63.3316791 C55.4551866,63.6674254 55.1908582,64.0803358 55.0644403,64.5728731 C54.9848134,64.8946642 54.9445896,65.4832463 54.9445896,66.3377985 L54.9445896,68.7167537 L54.1097388,68.7167537 L54.1097388,62.2283955 Z" id="Fill-4" fill="#FEFEFE"></path>
                <path d="M64.6812313,62.8672985 C64.2174254,62.8672985 63.788097,62.9822239 63.3932463,63.2096119 C63.0000373,63.4394627 62.6864552,63.758791 62.4549627,64.1741642 C62.2226493,64.5878955 62.106903,65.0254328 62.106903,65.4843134 C62.106903,65.9423731 62.2226493,66.3799104 62.4566045,66.7977463 C62.6930224,67.2147612 63.0057836,67.538194 63.403097,67.7729701 C63.7979478,68.0044627 64.2231716,68.120209 64.6746642,68.120209 C65.1327239,68.120209 65.5661567,68.0044627 65.9757836,67.7746119 C66.3845896,67.5447612 66.6998134,67.2328209 66.9198134,66.838791 C67.1422761,66.4455821 67.2514552,66.0014776 67.2514552,65.5097612 C67.2514552,64.7586418 67.0035448,64.1290149 66.5093657,63.6249851 C66.0143657,63.1201343 65.4052612,62.8672985 64.6812313,62.8672985 Z M68.0206343,62.2286418 L68.0206343,68.717 L67.1989179,68.717 L67.1989179,67.6022239 C66.8492164,68.0266269 66.4560075,68.3467761 66.0201119,68.5618507 C65.5850373,68.7761045 65.1089179,68.8836418 64.5917537,68.8836418 C63.6731716,68.8836418 62.8900373,68.5503582 62.2382463,67.8846119 C61.5897388,67.2188657 61.2638433,66.4086418 61.2638433,65.4539403 C61.2638433,64.5205821 61.5938433,63.7226716 62.2489179,63.0585672 C62.9039925,62.3952836 63.693694,62.062 64.6155597,62.062 C65.1491418,62.062 65.6318284,62.1752836 66.0611567,62.4018507 C66.4929478,62.6292388 66.8705597,62.9690896 67.1989179,63.421403 L67.1989179,62.2286418 L68.0206343,62.2286418 Z" id="Fill-6" fill="#FEFEFE"></path>
                <path d="M73.0236642,62.8672985 C72.5516493,62.8672985 72.1124701,62.9822239 71.7069478,63.2096119 C71.3022463,63.4394627 70.982097,63.7546866 70.7522463,64.1577463 C70.5223955,64.560806 70.4066493,64.9991642 70.4066493,65.4670746 C70.4066493,66.178791 70.644709,66.7673731 71.123291,67.2328209 C71.5994104,67.6974478 72.2183657,67.9289403 72.9768731,67.9289403 C73.7444104,67.9289403 74.360903,67.6999104 74.8271716,67.2369254 C75.2950821,66.7772239 75.5290373,66.1705821 75.5290373,65.4194627 C75.5290373,64.9318507 75.4215,64.4934925 75.2056045,64.1109552 C74.9913507,63.7267761 74.6884403,63.4230448 74.2935896,63.201403 C73.9012015,62.9797612 73.4776194,62.8672985 73.0236642,62.8672985 Z M75.4863507,62.2286418 L76.3269478,62.2286418 L76.3269478,67.3994627 C76.3269478,68.3098358 76.2473209,68.9747612 76.0888881,69.3967015 C75.8713507,69.9934925 75.4904552,70.453194 74.9494851,70.7749851 C74.4093358,71.0959552 73.7608284,71.2568507 72.9990373,71.2568507 C72.443291,71.2568507 71.9433657,71.1772239 71.5017239,71.0212537 C71.0576194,70.8644627 70.6980672,70.6543134 70.4189627,70.3899851 C70.1398582,70.1256567 69.8829179,69.7390149 69.6489627,69.2300597 L70.5552313,69.2300597 C70.8006791,69.6593881 71.1208284,69.9762537 71.5099328,70.1839403 C71.8982164,70.3899851 72.3825448,70.4934179 72.9588134,70.4934179 C73.5268731,70.4934179 74.007097,70.3875224 74.3978433,70.1740896 C74.7902313,69.9631194 75.0693358,69.6930448 75.2359776,69.3720746 C75.4026194,69.0502836 75.4863507,68.5314776 75.4863507,67.8172985 L75.4863507,67.4840149 C75.1727687,67.8796866 74.7885896,68.1858806 74.3362761,68.3968507 C73.8823209,68.6111045 73.402097,68.717 72.8939627,68.717 C72.2971716,68.717 71.7356791,68.567597 71.2119478,68.2728955 C70.6873955,67.9765522 70.282694,67.5767761 69.9953806,67.0768507 C69.7080672,66.5761045 69.5660522,66.0269254 69.5660522,65.4260299 C69.5660522,64.8259552 69.7146343,64.2652836 70.0134403,63.7464776 C70.3106045,63.2276716 70.7243358,62.8180448 71.2513507,62.5151343 C71.775903,62.2138657 72.3316493,62.062 72.9161269,62.062 C73.402097,62.062 73.8544104,62.163791 74.2730672,62.3632687 C74.6925448,62.5643881 75.0972463,62.8960299 75.4863507,63.3565522 L75.4863507,62.2286418 Z" id="Fill-8" fill="#FEFEFE"></path>
                <path d="M83.5786567,64.8169254 C83.466194,64.372 83.3036567,64.0149104 83.0918657,63.7505821 C82.8776119,63.4846119 82.5976866,63.2678955 82.2479851,63.1053582 C81.8974627,62.9428209 81.5313433,62.8615522 81.1438806,62.8615522 C80.5093284,62.8615522 79.961791,63.0667761 79.506194,63.4755821 C79.1720896,63.7735672 78.9200746,64.2209552 78.7485075,64.8169254 L83.5786567,64.8169254 Z M83.5786567,66.563791 L84.2805224,66.9340149 C84.0506716,67.3879701 83.7838806,67.7524478 83.4834328,68.0307313 C83.1797015,68.3098358 82.8398507,68.5216269 82.4638806,68.6652836 C82.0846269,68.8105821 81.6569403,68.8836418 81.1808209,68.8836418 C80.1226866,68.8836418 79.2960448,68.5372239 78.7000746,67.8443881 C78.1041045,67.1499104 77.8069403,66.3667761 77.8069403,65.4908806 C77.8069403,64.6683433 78.0589552,63.9344627 78.563806,63.2908806 C79.2024627,62.4732687 80.0594776,62.062 81.1323881,62.062 C82.2373134,62.062 83.120597,62.4831194 83.7797761,63.3220746 C84.2501493,63.9131194 84.488209,64.6527463 84.4964179,65.5376716 L78.665597,65.5376716 C78.6795522,66.2953582 78.9217164,66.9134925 79.3863433,67.3961791 C79.851791,67.8780448 80.425597,68.120209 81.109403,68.120209 C81.4402239,68.120209 81.761194,68.0635672 82.0723134,67.947 C82.3842537,67.8312537 82.6502239,67.6785672 82.8685821,67.4881194 C83.0861194,67.2984925 83.3241791,66.9890149 83.5786567,66.563791 Z" id="Fill-10" fill="#FEFEFE"></path>
                <path d="M86.0452836,62.2283955 L86.8735672,62.2283955 L86.8735672,63.3497388 C87.1641642,62.9368284 87.4621493,62.6355597 87.7691642,62.444291 C88.1902836,62.1898134 88.6335672,62.0617537 89.098194,62.0617537 C89.4117761,62.0617537 89.7105821,62.1249627 89.993791,62.2464552 C90.2745373,62.3712313 90.5068507,62.5337687 90.6833433,62.7389925 C90.8622985,62.9450373 91.0174478,63.2372761 91.1496119,63.6181716 C91.4287164,63.1092164 91.7759552,62.7233955 92.193791,62.4582463 C92.610806,62.1939179 93.0590149,62.0617537 93.5408806,62.0617537 C93.9890896,62.0617537 94.3855821,62.1758582 94.7295373,62.4016045 C95.0734925,62.6289925 95.3304328,62.9450373 95.4970746,63.3497388 C95.6645373,63.7544403 95.7466269,64.3635448 95.7466269,65.1754104 L95.7466269,68.7167537 L94.8945373,68.7167537 L94.8945373,65.1754104 C94.8945373,64.479291 94.8436418,64.000709 94.7459552,63.7404851 C94.6466269,63.4802612 94.4758806,63.2709328 94.2353582,63.1116791 C93.9948358,62.9532463 93.7083433,62.8736194 93.3742388,62.8736194 C92.9670746,62.8736194 92.5968507,62.9918284 92.2602836,63.2323507 C91.9253582,63.4704104 91.6807313,63.7872761 91.5239403,64.1845896 C91.368791,64.5835448 91.2924478,65.2468284 91.2924478,66.176903 L91.2924478,68.7167537 L90.4641642,68.7167537 L90.4641642,65.3945896 C90.4641642,64.6114552 90.4149104,64.0803358 90.3172239,63.7995896 C90.2195373,63.5204851 90.0504328,63.2955597 89.8082687,63.1264552 C89.5661045,62.9573507 89.2779701,62.8736194 88.9430448,62.8736194 C88.5572239,62.8736194 88.1960299,62.9901866 87.8611045,63.2216791 C87.5253582,63.4556343 87.2766269,63.7667537 87.1157313,64.1616045 C86.9548358,64.5548134 86.8735672,65.1565299 86.8735672,65.9675746 L86.8735672,68.7167537 L86.0452836,68.7167537 L86.0452836,62.2283955 Z" id="Fill-12" fill="#FEFEFE"></path>
                <path d="M102.968291,64.8169254 C102.856649,64.372 102.693291,64.0149104 102.482321,63.7505821 C102.268067,63.4846119 101.987321,63.2678955 101.637619,63.1053582 C101.287097,62.9428209 100.920978,62.8615522 100.534336,62.8615522 C99.8997836,62.8615522 99.3522463,63.0667761 98.8958284,63.4755821 C98.5625448,63.7735672 98.309709,64.2209552 98.1389627,64.8169254 L102.968291,64.8169254 Z M102.968291,66.563791 L103.670157,66.9340149 C103.440306,67.3879701 103.174336,67.7524478 102.873067,68.0307313 C102.570157,68.3098358 102.230306,68.5216269 101.853515,68.6652836 C101.475082,68.8105821 101.047396,68.8836418 100.571276,68.8836418 C99.5123209,68.8836418 98.6865,68.5372239 98.0905299,67.8443881 C97.4937388,67.1499104 97.1965746,66.3667761 97.1965746,65.4908806 C97.1965746,64.6683433 97.4485896,63.9344627 97.9534403,63.2908806 C98.5929179,62.4732687 99.4499328,62.062 100.522843,62.062 C101.626948,62.062 102.510231,62.4831194 103.170231,63.3220746 C103.639784,63.9131194 103.877843,64.6527463 103.886052,65.5376716 L98.0560522,65.5376716 C98.0691866,66.2953582 98.3113507,66.9134925 98.7759776,67.3961791 C99.2422463,67.8780448 99.8160522,68.120209 100.499858,68.120209 C100.829858,68.120209 101.150828,68.0635672 101.462769,67.947 C101.773888,67.8312537 102.040679,67.6785672 102.258216,67.4881194 C102.475754,67.2984925 102.713813,66.9890149 102.968291,66.563791 Z" id="Fill-14" fill="#FEFEFE"></path>
                <path d="M105.441403,62.2283955 L106.276254,62.2283955 L106.276254,63.3924254 C106.609537,62.9466791 106.979761,62.6133955 107.384463,62.3933955 C107.789985,62.1733955 108.231627,62.0617537 108.709388,62.0617537 C109.193716,62.0617537 109.623866,62.185709 110.000657,62.4319776 C110.374985,62.6782463 110.65409,63.0098881 110.830582,63.426903 C111.009537,63.8447388 111.099836,64.495709 111.099836,65.3773507 L111.099836,68.7167537 L110.271552,68.7167537 L110.271552,65.6211567 C110.271552,64.8749627 110.238716,64.3758582 110.175507,64.1254851 C110.076179,63.6961567 109.890657,63.3743657 109.615657,63.1568284 C109.340657,62.9409328 108.981925,62.8309328 108.540284,62.8309328 C108.036254,62.8309328 107.58394,62.9975746 107.185806,63.3316791 C106.786851,63.6674254 106.521701,64.0803358 106.395284,64.5728731 C106.316478,64.8946642 106.276254,65.4832463 106.276254,66.3377985 L106.276254,68.7167537 L105.441403,68.7167537 L105.441403,62.2283955 Z" id="Fill-16" fill="#FEFEFE"></path>
                <polygon id="Fill-18" fill="#FEFEFE" points="113.61506 59.8210373 114.457299 59.8210373 114.457299 62.2287239 115.780582 62.2287239 115.780582 62.9453657 114.457299 62.9453657 114.457299 68.7170821 113.61506 68.7170821 113.61506 62.9453657 112.477299 62.9453657 112.477299 62.2287239 113.61506 62.2287239"></polygon>
                <path d="M119.637067,67.0824328 L120.381619,66.6366866 C120.906993,67.6020597 121.513634,68.0839254 122.201545,68.0839254 C122.494604,68.0839254 122.771246,68.0174328 123.030649,67.8787015 C123.28841,67.7424328 123.485425,67.5585522 123.620873,67.3270597 C123.757142,67.097209 123.824455,66.8525821 123.824455,66.594 C123.824455,66.2992985 123.724306,66.0119851 123.524007,65.729597 C123.249828,65.3404925 122.749082,64.8709403 122.02259,64.323403 C121.291993,63.7692985 120.836396,63.3711642 120.656619,63.1240746 C120.347142,62.7111642 120.192813,62.2629552 120.192813,61.7827313 C120.192813,61.400194 120.282291,61.0521343 120.466172,60.7385522 C120.64841,60.425791 120.906993,60.1770597 121.238634,59.9956418 C121.570276,59.8142239 121.930649,59.7247463 122.319754,59.7247463 C122.734306,59.7247463 123.121769,59.8265373 123.4805,60.0325821 C123.840052,60.2361642 124.220948,60.614597 124.621545,61.1621343 L123.907366,61.7055672 C123.578187,61.2680299 123.294978,60.9782537 123.062664,60.8403433 C122.831172,60.7024328 122.575873,60.6310149 122.303336,60.6310149 C121.948709,60.6310149 121.660575,60.7385522 121.434007,60.9544478 C121.210724,61.1687015 121.098261,61.4330299 121.098261,61.7466119 C121.098261,61.9370597 121.136843,62.1225821 121.21647,62.3023582 C121.297739,62.4813134 121.442216,62.6742239 121.652366,62.8860149 C121.768112,62.995194 122.147366,63.2890746 122.786022,63.7610896 C123.545351,64.323403 124.066619,64.8216866 124.349007,65.258403 C124.629754,65.6967612 124.77259,66.1342985 124.77259,66.5759403 C124.77259,67.2129552 124.530425,67.764597 124.047739,68.2341493 C123.56341,68.7028806 122.97647,68.9368358 122.285276,68.9368358 C121.751694,68.9368358 121.269007,68.7964627 120.836396,68.5116119 C120.402963,68.2267612 120.003187,67.7498209 119.637067,67.0824328" id="Fill-20" fill="#FEFEFE"></path>
                <polygon id="Fill-22" fill="#FEFEFE" points="125.789843 62.2283955 126.673127 62.2283955 128.904321 67.2268284 131.067381 62.2283955 131.957231 62.2283955 128.085888 71.0899627 127.205067 71.0899627 128.456112 68.2291418"></polygon>
                <path d="M136.297881,62.9387164 L135.761015,63.4944627 C135.315269,63.0610299 134.879373,62.8434925 134.454149,62.8434925 C134.183254,62.8434925 133.953403,62.9329701 133.759672,63.1119254 C133.566761,63.2908806 133.471537,63.5010299 133.471537,63.7390896 C133.471537,63.9484179 133.550343,64.1503582 133.709597,64.3416269 C133.86803,64.5345373 134.201313,64.765209 134.710269,65.0270746 C135.330866,65.3488657 135.752806,65.6583433 135.973627,65.9571493 C136.194448,66.2584179 136.304448,66.5982687 136.304448,66.9767015 C136.304448,67.5078209 136.116463,67.9593134 135.742134,68.3303582 C135.369448,68.6989403 134.901537,68.8836418 134.341687,68.8836418 C133.967358,68.8836418 133.61191,68.8023731 133.271239,68.6398358 C132.931388,68.4764776 132.650642,68.2515522 132.426537,67.9658806 L132.95191,67.3690896 C133.377134,67.8493134 133.828627,68.0898358 134.305567,68.0898358 C134.638851,68.0898358 134.923701,67.9839403 135.157657,67.7688657 C135.391612,67.5546119 135.510642,67.3017761 135.510642,67.0111791 C135.510642,66.7731194 135.432657,66.5596866 135.278328,66.3749851 C135.121537,66.1911045 134.774299,65.9596119 134.228403,65.6829701 C133.643925,65.3792388 133.246612,65.0812537 133.034821,64.7865522 C132.826313,64.4943134 132.720418,64.1577463 132.720418,63.7793134 C132.720418,63.2867761 132.88706,62.8779701 133.222806,62.5520746 C133.558552,62.227 133.983776,62.062 134.496836,62.062 C135.092806,62.062 135.693701,62.3550597 136.297881,62.9387164" id="Fill-24" fill="#FEFEFE"></path>
                <polygon id="Fill-26" fill="#FEFEFE" points="138.502478 59.8210373 139.344716 59.8210373 139.344716 62.2287239 140.668 62.2287239 140.668 62.9453657 139.344716 62.9453657 139.344716 68.7170821 138.502478 68.7170821 138.502478 62.9453657 137.363896 62.9453657 137.363896 62.2287239 138.502478 62.2287239"></polygon>
                <path d="M147.37603,64.8169254 C147.263567,64.372 147.10103,64.0149104 146.889239,63.7505821 C146.674985,63.4846119 146.39506,63.2678955 146.045358,63.1053582 C145.694836,62.9428209 145.328716,62.8615522 144.941254,62.8615522 C144.306701,62.8615522 143.759164,63.0667761 143.303567,63.4755821 C142.969463,63.7735672 142.717448,64.2209552 142.545881,64.8169254 L147.37603,64.8169254 Z M147.37603,66.563791 L148.077896,66.9340149 C147.848045,67.3879701 147.581254,67.7524478 147.280806,68.0307313 C146.977075,68.3098358 146.637224,68.5216269 146.261254,68.6652836 C145.882,68.8105821 145.454313,68.8836418 144.978194,68.8836418 C143.92006,68.8836418 143.093418,68.5372239 142.498269,67.8443881 C141.901478,67.1499104 141.604313,66.3667761 141.604313,65.4908806 C141.604313,64.6683433 141.856328,63.9344627 142.361179,63.2908806 C142.999836,62.4732687 143.856851,62.062 144.929761,62.062 C146.034687,62.062 146.91797,62.4831194 147.577149,63.3220746 C148.047522,63.9131194 148.285582,64.6527463 148.293791,65.5376716 L142.46297,65.5376716 C142.476925,66.2953582 142.71909,66.9134925 143.183716,67.3961791 C143.649164,67.8780448 144.22297,68.120209 144.906776,68.120209 C145.237597,68.120209 145.558567,68.0635672 145.869687,67.947 C146.181627,67.8312537 146.447597,67.6785672 146.665955,67.4881194 C146.883493,67.2984925 147.121552,66.9890149 147.37603,66.563791 Z" id="Fill-28" fill="#FEFEFE"></path>
                <path d="M149.842657,62.2283955 L150.67094,62.2283955 L150.67094,63.3497388 C150.961537,62.9368284 151.259522,62.6355597 151.566537,62.444291 C151.987657,62.1898134 152.43094,62.0617537 152.895567,62.0617537 C153.209149,62.0617537 153.507955,62.1249627 153.791164,62.2464552 C154.07191,62.3712313 154.304224,62.5337687 154.480716,62.7389925 C154.659672,62.9450373 154.814821,63.2372761 154.946985,63.6181716 C155.22609,63.1092164 155.573328,62.7233955 155.991164,62.4582463 C156.408179,62.1939179 156.856388,62.0617537 157.339075,62.0617537 C157.786463,62.0617537 158.182955,62.1758582 158.52691,62.4016045 C158.870866,62.6289925 159.127806,62.9450373 159.294448,63.3497388 C159.46191,63.7544403 159.544,64.3635448 159.544,65.1754104 L159.544,68.7167537 L158.69191,68.7167537 L158.69191,65.1754104 C158.69191,64.479291 158.641015,64.000709 158.543328,63.7404851 C158.444,63.4802612 158.273254,63.2709328 158.032731,63.1116791 C157.79303,62.9532463 157.505716,62.8736194 157.171612,62.8736194 C156.764448,62.8736194 156.394224,62.9918284 156.057657,63.2323507 C155.722731,63.4704104 155.478104,63.7872761 155.321313,64.1845896 C155.166164,64.5835448 155.089821,65.2468284 155.089821,66.176903 L155.089821,68.7167537 L154.261537,68.7167537 L154.261537,65.3945896 C154.261537,64.6114552 154.212284,64.0803358 154.114597,63.7995896 C154.01691,63.5204851 153.847806,63.2955597 153.605642,63.1264552 C153.363478,62.9573507 153.075343,62.8736194 152.740418,62.8736194 C152.354597,62.8736194 151.993403,62.9901866 151.658478,63.2216791 C151.322731,63.4556343 151.074,63.7667537 150.913104,64.1616045 C150.752209,64.5548134 150.67094,65.1565299 150.67094,65.9675746 L150.67094,68.7167537 L149.842657,68.7167537 L149.842657,62.2283955 Z" id="Fill-30" fill="#FEFEFE"></path>
                <g id="Group-34" transform="translate(160.074627, 61.567164)">
                    <mask id="mask-2" fill="white">
                        <use xlink:href="#path-1"></use>
                    </mask>
                    <g id="Clip-33"></g>
                    <path d="M4.49128358,1.37155224 L3.95441791,1.92729851 C3.50785075,1.49386567 3.07195522,1.27632836 2.64755224,1.27632836 C2.37665672,1.27632836 2.14680597,1.36580597 1.95307463,1.54476119 C1.76016418,1.72371642 1.6641194,1.93386567 1.6641194,2.17192537 C1.6641194,2.38125373 1.74292537,2.58319403 1.9021791,2.77446269 C2.06143284,2.96737313 2.39471642,3.19804478 2.90367164,3.45991045 C3.52426866,3.78170149 3.94538806,4.0911791 4.16702985,4.38998507 C4.38702985,4.69125373 4.49702985,5.03110448 4.49702985,5.40953731 C4.49702985,5.94065672 4.30986567,6.39214925 3.93553731,6.76319403 C3.56285075,7.13177612 3.0949403,7.31647761 2.53508955,7.31647761 C2.16076119,7.31647761 1.80531343,7.23520896 1.46464179,7.07267164 C1.12479104,6.90931343 0.844044776,6.68438806 0.619940299,6.39871642 L1.14531343,5.80192537 C1.57053731,6.28214925 2.02202985,6.52267164 2.49814925,6.52267164 C2.83225373,6.52267164 3.11710448,6.41677612 3.3510597,6.20170149 C3.58501493,5.98744776 3.70322388,5.73461194 3.70322388,5.44401493 C3.70322388,5.20595522 3.6260597,4.99252239 3.47173134,4.8078209 C3.3149403,4.6239403 2.9668806,4.39244776 2.42180597,4.11580597 C1.83732836,3.81207463 1.44001493,3.51408955 1.22822388,3.21938806 C1.01889552,2.92714925 0.913,2.59058209 0.913,2.21214925 C0.913,1.71961194 1.08046269,1.31080597 1.41620896,0.984910448 C1.75195522,0.659835821 2.1771791,0.494835821 2.69023881,0.494835821 C3.28620896,0.494835821 3.88710448,0.787895522 4.49128358,1.37155224" id="Fill-32" fill="#FEFEFE" mask="url(#mask-2)"></path>
                </g>
                <path d="M26.9977761,52.8498284 L27.4985224,52.5502015 C27.8515075,53.198709 28.2594925,53.5229627 28.7224776,53.5229627 C28.9186716,53.5229627 29.1050149,53.4778134 29.2790448,53.3850522 C29.4522537,53.2931119 29.5852388,53.1699776 29.6755373,53.0140075 C29.7674776,52.8596791 29.8126269,52.6955 29.8126269,52.522291 C29.8126269,52.3228134 29.7453134,52.129903 29.6115075,51.9402761 C29.4259851,51.6784104 29.0902388,51.3623657 28.601806,50.9946045 C28.1100896,50.6227388 27.8038955,50.354306 27.6832239,50.189306 C27.4755373,49.9110224 27.3721045,49.6105746 27.3721045,49.2871418 C27.3721045,49.0302015 27.4320299,48.7962463 27.5551642,48.586097 C27.6782985,48.3751269 27.8515075,48.2076642 28.074791,48.0861716 C28.2972537,47.9646791 28.5402388,47.9047537 28.8012836,47.9047537 C29.0803881,47.9047537 29.3406119,47.9728881 29.5811343,48.1107985 C29.8232985,48.2478881 30.0794179,48.5015448 30.3486716,48.8701269 L29.8684478,49.2354254 C29.646806,48.9407239 29.4563582,48.7469925 29.3003881,48.6542313 C29.1444179,48.5606493 28.9736716,48.5130373 28.7906119,48.5130373 C28.5525522,48.5130373 28.358,48.586097 28.2061343,48.7297537 C28.0559104,48.8734104 27.9803881,49.0523657 27.9803881,49.2625149 C27.9803881,49.3913955 28.0066567,49.5153507 28.059194,49.6360224 C28.114194,49.7558731 28.2118806,49.8863955 28.3522537,50.0284104 C28.4310597,50.102291 28.6847164,50.3001269 29.1148657,50.6169925 C29.6246418,50.9946045 29.9751642,51.3295299 30.1656119,51.6242313 C30.353597,51.9181119 30.4504627,52.2128134 30.4504627,52.5091567 C30.4504627,52.9368433 30.2871045,53.308709 29.9628507,53.6239328 C29.6369552,53.9391567 29.2429254,54.0967687 28.7782985,54.0967687 C28.4195672,54.0967687 28.0953134,54.0015448 27.8038955,53.8102761 C27.5124776,53.6190075 27.2440448,53.2988582 26.9977761,52.8498284" id="Fill-35" fill="#FEFEFE"></path>
                <polygon id="Fill-37" fill="#FEFEFE" points="32.854291 53.9489254 33.6916045 48.0516119 33.7884701 48.0516119 36.186306 52.890791 38.5578731 48.0516119 38.6539179 48.0516119 39.5010821 53.9489254 38.9190672 53.9489254 38.3419776 49.7319851 36.256903 53.9489254 36.1091418 53.9489254 33.9969776 49.6999701 33.4231716 53.9489254"></polygon>
                <path d="M44.4305597,49.3024925 L43.4167537,51.4401045 L45.433694,51.4401045 L44.4305597,49.3024925 Z M44.5027985,48.0522687 L47.2527985,53.9487612 L46.6198881,53.9487612 L45.693097,52.0089851 L43.1524254,52.0089851 L42.2305597,53.9487612 L41.5738433,53.9487612 L44.3599627,48.0522687 L44.5027985,48.0522687 Z" id="Fill-39" fill="#FEFEFE"></path>
                <path d="M50.2157388,48.6291119 L50.2157388,50.6329179 L51.2295448,50.6419478 C51.6219328,50.6419478 51.911709,50.6041866 52.1005149,50.5294851 C52.2901418,50.4547836 52.4362612,50.3349328 52.5413358,50.1707537 C52.6464104,50.0073955 52.7005896,49.8218731 52.7005896,49.6199328 C52.7005896,49.4212761 52.6464104,49.2423209 52.5405149,49.0806045 C52.4337985,48.919709 52.2926045,48.8031418 52.1185746,48.7333657 C51.9445448,48.6652313 51.6564104,48.6291119 51.2525299,48.6291119 L50.2157388,48.6291119 Z M49.6263358,48.0520224 L50.7993955,48.0520224 C51.455291,48.0520224 51.8985746,48.0791119 52.1308881,48.133291 C52.4814104,48.2129179 52.7654403,48.3836642 52.9854403,48.6463507 C53.2037985,48.9115 53.3129776,49.2349328 53.3129776,49.6199328 C53.3129776,49.9400821 53.2382761,50.2216493 53.0880522,50.4646343 C52.9353657,50.7084403 52.7211119,50.8923209 52.4387239,51.0162761 C52.1587985,51.1410522 51.7713358,51.2042612 51.2771567,51.2067239 L53.3975299,53.9485149 L52.6677537,53.9485149 L50.552306,51.2067239 L50.2157388,51.2067239 L50.2157388,53.9485149 L49.6263358,53.9485149 L49.6263358,48.0520224 Z" id="Fill-41" fill="#FEFEFE"></path>
                <polygon id="Fill-43" fill="#FEFEFE" points="55.4192313 48.6250896 55.4192313 48.0521045 58.6535597 48.0521045 58.6535597 48.6250896 57.3384851 48.6250896 57.3384851 53.948597 56.7384104 53.948597 56.7384104 48.6250896"></polygon>
                <polygon id="Fill-45" fill="#FEFEFE" points="64.2374552 48.0519403 64.8301418 48.0519403 64.8301418 50.5252985 67.8288731 50.5252985 67.8288731 48.0519403 68.4215597 48.0519403 68.4215597 53.9492537 67.8288731 53.9492537 67.8288731 51.103209 64.8301418 51.103209 64.8301418 53.9492537 64.2374552 53.9492537"></polygon>
                <path d="M74.1186567,48.481597 C73.6827612,48.481597 73.2706716,48.5948806 72.8791045,48.8222687 C72.4891791,49.0488358 72.1854478,49.3550299 71.9654478,49.7400299 C71.7462687,50.124209 71.6370896,50.5535373 71.6370896,51.0263731 C71.6370896,51.726597 71.8792537,52.3176418 72.3652239,52.8011493 C72.8495522,53.282194 73.4348507,53.5235373 74.1186567,53.5235373 C74.5758955,53.5235373 74.9986567,53.4118955 75.3869403,53.1902537 C75.7760448,52.9694328 76.0797761,52.6657015 76.2973134,52.2807015 C76.5140299,51.8957015 76.6240299,51.4680149 76.6240299,50.9984627 C76.6240299,50.5305522 76.5140299,50.107791 76.2973134,49.7293582 C76.0797761,49.3517463 75.7727612,49.0488358 75.3779104,48.8222687 C74.9822388,48.5948806 74.5619403,48.481597 74.1186567,48.481597 M74.0899254,47.9045075 C74.9822388,47.9045075 75.7292537,48.2016716 76.3309701,48.7976418 C76.9318657,49.3936119 77.2323134,50.1274925 77.2323134,50.9984627 C77.2323134,51.8620448 76.9335075,52.5942836 76.3326119,53.1943582 C75.7333582,53.7968955 75.0011194,54.0965224 74.1375373,54.0965224 C73.2649254,54.0965224 72.5277612,53.7985373 71.9260448,53.1984627 C71.3251493,52.6016716 71.0238806,51.876 71.0238806,51.0263731 C71.0238806,50.4599552 71.1609701,49.9345821 71.4343284,49.4518955 C71.7076866,48.9675672 72.0820149,48.5891343 72.5548507,48.3149552 C73.0285075,48.0407761 73.5399254,47.9045075 74.0899254,47.9045075" id="Fill-47" fill="#FEFEFE"></path>
                <polygon id="Fill-49" fill="#FEFEFE" points="79.5743284 53.9489254 80.4116418 48.0516119 80.5085075 48.0516119 82.9063433 52.890791 85.2779104 48.0516119 85.3731343 48.0516119 86.2211194 53.9489254 85.6391045 53.9489254 85.0620149 49.7319851 82.9769403 53.9489254 82.8291791 53.9489254 80.7170149 49.6999701 80.143209 53.9489254"></polygon>
                <polygon id="Fill-51" fill="#FEFEFE" points="88.8182687 48.0519403 92.1970746 48.0519403 92.1970746 48.6331343 89.4076716 48.6331343 89.4076716 50.4776866 92.1740896 50.4776866 92.1740896 51.0547761 89.4076716 51.0547761 89.4076716 53.3672388 92.1740896 53.3672388 92.1740896 53.9492537 88.8182687 53.9492537"></polygon>
                <path d="M144.179791,18.5806418 C143.116731,18.5806418 142.306507,18.8737015 141.746657,19.4614627 C141.186806,20.048403 140.908522,20.7059403 140.908522,21.4332537 L140.908522,31.7527313 C140.908522,32.4513134 141.180239,33.0809403 141.726134,33.6399701 C142.271209,34.1998209 143.074866,34.4789254 144.137925,34.4789254 C145.117254,34.4789254 145.899567,34.2063881 146.487328,33.6613134 C147.074269,33.1162388 147.368149,32.4800448 147.368149,31.7527313 L147.368149,21.4332537 C147.368149,20.7059403 147.137478,20.048403 146.676134,19.4614627 C146.214791,18.8737015 145.382403,18.5806418 144.179791,18.5806418" id="Fill-53" fill="#FEFEFE"></path>
                <g id="Group-57" transform="translate(119.029851, 0.000000)">
                    <mask id="mask-4" fill="white">
                        <use xlink:href="#path-3"></use>
                    </mask>
                    <g id="Clip-56"></g>
                    <path d="M34.3786119,31.7526493 C34.3786119,32.7598881 34.2185373,33.6891418 33.8967463,34.5420522 C33.5749552,35.3949627 33.121,36.1501866 32.5332388,36.8077239 C31.9454776,37.4644403 31.2534627,38.024291 30.457194,38.4856343 C29.6592836,38.9469776 28.7858507,39.2901119 27.8344328,39.5125746 C27.6948806,39.5683955 27.589806,39.6250373 27.5200299,39.6808582 C27.4502537,39.7375 27.4289104,39.863097 27.4568209,40.0584701 C27.5413731,40.6183209 27.6948806,40.9532463 27.9189851,41.065709 C28.1422687,41.1765299 28.4082388,41.2331716 28.7160746,41.2331716 C28.8835373,41.2331716 29.1700299,41.198694 29.5755522,41.128097 C29.9818955,41.0583209 30.449806,40.9532463 30.9809254,40.813694 C31.2050299,40.7578731 31.3798806,40.7578731 31.5054776,40.813694 C31.6310746,40.8695149 31.722194,41.0230224 31.7780149,41.2750373 L32.4486866,43.7073507 C32.5053284,43.9043657 32.5184627,44.0578731 32.4913731,44.1695149 C32.4634627,44.2819776 32.3378657,44.4075746 32.1137612,44.5471269 C31.4701791,44.9666045 30.7083881,45.253097 29.8275672,45.4074254 C28.9467463,45.5609328 28.171,45.638097 27.4995075,45.638097 C25.7928657,45.638097 24.5130896,45.1480224 23.6601791,44.1695149 C22.8072687,43.1910075 22.3812239,41.7922015 22.3812239,39.9747388 C22.3812239,39.6110821 22.2277164,39.415709 21.9198806,39.3877985 C20.1303284,38.9395896 18.6830896,38.0374254 17.5781642,36.681306 C16.4732388,35.3251866 15.921597,33.6825746 15.921597,31.7526493 L15.921597,21.4331716 C15.921597,20.1747388 16.1522687,19.041903 16.612791,18.0354851 C17.0749552,17.0282463 17.7103284,16.1679478 18.522194,15.4545896 C19.3332388,14.7420522 20.297791,14.1969776 21.4166716,13.8193657 C22.5347313,13.4417537 23.7652537,13.2529478 25.1082388,13.2529478 C26.4233134,13.2529478 27.6464478,13.4417537 28.7784627,13.8193657 C29.9112985,14.1969776 30.8906269,14.7420522 31.714806,15.4545896 C32.5406269,16.1679478 33.1907761,17.0282463 33.6660746,18.0354851 C34.1413731,19.041903 34.3786119,20.1747388 34.3786119,21.4331716 L34.3786119,31.7526493 Z M13.0033134,17.0077239 C12.8210746,17.3853358 12.5838358,17.7210821 12.2899552,18.0141418 C11.9960746,18.3080224 11.6537612,18.538694 11.262194,18.7061567 C10.8706269,18.8744403 10.4519701,18.9581716 10.0037612,18.9581716 C9.08107463,18.9581716 8.2979403,18.6503358 7.65435821,18.0354851 C7.01159701,17.4206343 6.68980597,16.6793657 6.68980597,15.8125 C6.68980597,14.916903 7.01159701,14.1690672 7.65435821,13.5681716 C8.2979403,12.9664552 9.08107463,12.6660075 10.0037612,12.6660075 C10.8985373,12.6660075 11.6677164,12.9738433 12.3112985,13.588694 C12.9540597,14.2043657 13.2758507,14.9448134 13.2758507,15.8125 C13.2758507,16.2311567 13.1855522,16.6301119 13.0033134,17.0077239 Z M12.8982388,38.716306 C12.8982388,39.3032463 12.5764478,39.5979478 11.9328657,39.5979478 L8.03197015,39.5979478 C7.4171194,39.5979478 7.10928358,39.3032463 7.10928358,38.716306 L7.10928358,21.6433209 C7.10928358,21.0276493 7.4171194,20.7206343 8.03197015,20.7206343 L11.9328657,20.7206343 C12.1857015,20.7206343 12.4081642,20.7969776 12.6051791,20.9504851 C12.8005522,21.1048134 12.8982388,21.3354851 12.8982388,21.6433209 L12.8982388,38.716306 Z M35.7971194,8.49503731 L20.0695821,0.204813433 L4.21480597,8.49503731 C2.24137313,9.52690299 0.165328358,10.3174254 0.165328358,12.5445149 L0.165328358,44.1268284 C0.165328358,46.353097 1.98771642,48.1754851 4.21480597,48.1754851 L35.7971194,48.1754851 C38.0233881,48.1754851 39.8457761,46.353097 39.8457761,44.1268284 L39.8457761,12.5445149 C39.8457761,10.3174254 37.7664478,9.53347015 35.7971194,8.49503731 Z" id="Fill-55" fill="#FEFEFE" mask="url(#mask-4)"></path>
                </g>
                <path d="M103.058836,15.6141716 L106.058388,15.6141716 L106.058388,20.6437985 L112.633761,20.6437985 L112.633761,23.492306 L106.058388,23.492306 L106.058388,32.8143955 C106.058388,33.0926791 106.144582,33.5055896 106.316149,34.0514851 C106.487716,34.5916343 106.654358,34.9758134 106.816075,35.1933507 C107.604134,36.299097 108.997194,36.8548433 110.997716,36.8548433 L112.118239,36.8548433 L113.239582,36.8548433 L113.239582,39.6114104 C113.11891,39.6114104 112.472045,39.6220821 111.300627,39.6417836 C110.431299,39.6614851 109.724507,39.6614851 109.179433,39.6417836 C108.411896,39.5818582 107.756,39.4702164 107.210104,39.3085 C105.97794,38.9653657 104.97809,38.2684254 104.209731,37.2176791 C103.443015,36.1677537 103.058836,34.9963358 103.058836,33.7034254 L103.058836,15.6141716 Z M95.114209,35.2516343 L95.114209,23.3708134 L90.902194,23.3708134 C88.9632388,23.3708134 87.3165224,24.0168582 85.9636866,25.3105896 C84.6100299,26.6026791 83.9336119,28.2091716 83.9336119,30.1276045 C83.9336119,32.0468582 84.6001791,33.6476045 85.9333134,34.9298433 C87.2664478,36.212903 88.8926418,36.8548433 90.8118955,36.8548433 C91.3068955,36.8548433 91.7846567,36.8039478 92.2451791,36.7029776 L92.2451791,39.5662612 C91.6746567,39.677903 91.146,39.7320821 90.6600299,39.7320821 C87.9330149,39.7320821 85.6049552,38.8085746 83.6758507,36.9599179 C81.7467463,35.1120821 80.782194,32.8349179 80.782194,30.1276045 C80.782194,28.5925299 81.136,27.1280522 81.842791,25.7341716 C82.6907761,24.1178284 83.8835373,22.8659627 85.4186119,21.9769328 C86.9536866,21.087903 88.6496567,20.6437985 90.5081642,20.6437985 L98.0530149,20.6437985 L98.0530149,39.6114104 L95.1568955,39.6114104 L95.1568955,35.2516343 L95.114209,35.2516343 Z M62.8645075,39.6114104 L59.8641343,39.6114104 L59.8641343,28.8248433 C59.8641343,27.2487239 59.3592836,25.9155896 58.3495821,24.8254403 C57.3398806,23.7344701 56.0461493,23.1893955 54.4708507,23.1893955 C52.8955522,23.1893955 51.6026418,23.7295448 50.5929403,24.8098433 C49.5824179,25.8909627 49.0775672,27.2290224 49.0775672,28.8248433 L49.0775672,39.6114104 L45.9565224,39.6114104 L45.9565224,20.6437985 L49.0775672,20.6437985 L49.0775672,22.6131269 C50.0872687,21.8250672 50.9664478,21.2799925 51.7142836,20.9770821 C52.6230149,20.5732015 53.6327164,20.3712612 54.744209,20.3712612 C56.157791,20.3712612 57.4605522,20.7094701 58.6524925,21.3858881 C59.8444328,22.062306 60.8032388,22.9669328 61.5313731,24.0981269 C62.3588358,22.9866343 63.4145075,22.0885746 64.6975672,21.4014851 C65.979806,20.7143955 67.2874925,20.3712612 68.6206269,20.3712612 C70.9035373,20.3712612 72.8326418,21.1839478 74.4087612,22.8101418 C75.9840597,24.4363358 76.7721194,26.3908881 76.7721194,28.6729776 L76.7721194,39.6114104 L73.7413731,39.6114104 L73.7413731,28.8248433 C73.7413731,27.2487239 73.2365224,25.9155896 72.2268209,24.8254403 C71.2162985,23.7344701 69.9340597,23.1893955 68.3784627,23.1893955 C66.8031642,23.1893955 65.4897313,23.7237985 64.439806,24.7950672 C63.3890597,25.8655149 62.8645075,27.1781269 62.8645075,28.7337239 L62.8645075,39.6114104 Z M31.6745821,39.8839478 C28.8868209,39.8839478 26.4832388,38.9448433 24.4630149,37.0658134 C22.442791,35.1876045 21.4330896,32.8849925 21.4330896,30.1579776 C21.4330896,27.4309627 22.442791,25.1185 24.4630149,23.2197687 C26.4832388,21.3210373 28.8868209,20.3712612 31.6745821,20.3712612 C34.4820448,20.3712612 36.9061493,21.3210373 38.9460746,23.2197687 C40.9868209,25.1185 42.0063731,27.4309627 42.0063731,30.1579776 C42.0063731,32.8849925 40.9868209,35.1876045 38.9460746,37.0658134 C36.9061493,38.9448433 34.4820448,39.8839478 31.6745821,39.8839478 Z M31.6745821,23.1893955 C29.6740597,23.1893955 27.9575672,23.8658134 26.5234627,25.2194701 C25.0893582,26.572306 24.3727164,28.2190224 24.3727164,30.1579776 C24.3924179,32.0969328 25.1197313,33.7239478 26.5538358,35.0365597 C27.9879403,36.3491716 29.6945821,37.0058881 31.6745821,37.0058881 C33.6742836,37.0058881 35.3965224,36.3491716 36.8404776,35.0365597 C38.2844328,33.7239478 39.0166716,32.0969328 39.037194,30.1579776 C39.0577164,28.2190224 38.3353284,26.572306 36.8708507,25.2194701 C35.4063731,23.8658134 33.6742836,23.1893955 31.6745821,23.1893955 Z M14.3323433,36.5511119 L14.3200299,36.5511119 L14.3200299,39.6114104 L17.2711493,39.6114104 L17.2711493,15.6445448 L14.3323433,15.6445448 L14.3323433,20.6437985 L9.72629851,20.6437985 C7.86779104,20.6437985 6.171,21.087903 4.63592537,21.9769328 C3.10085075,22.8659627 1.90891045,24.1178284 1.06092537,25.7341716 C0.353313433,27.1280522 0.000328358209,28.5925299 0.000328358209,30.1276045 C0.000328358209,32.8349179 0.959955224,35.0923806 2.87838806,36.8991716 C4.79764179,38.7076045 7.13062687,39.6114104 9.87816418,39.6114104 L11.4091343,39.6114104 L11.4091343,36.5511119 L10.029209,36.5511119 C8.09025373,36.5511119 6.45913433,35.9551418 5.13585075,34.7640224 C3.81256716,33.5720821 3.15092537,32.0263358 3.15092537,30.1276045 C3.15092537,28.2091716 3.82816418,26.6026791 5.1818209,25.3105896 C6.53465672,24.0168582 8.18137313,23.3708134 10.1203284,23.3708134 L14.3323433,23.3708134 L14.3323433,36.5511119 Z" id="Fill-58" fill="#FEFEFE"></path>
                <mask id="mask-6" fill="white">
                    <use xlink:href="#path-5"></use>
                </mask>
                <g id="Clip-61"></g>
                <polygon id="Fill-60" fill="#FEFEFE" mask="url(#mask-6)" points="26.895 72.238806 27.3456716 72.238806 27.3456716 57.9043284 26.895 57.9043284"></polygon>
            </g>
        </g>
    </g>
</svg>