<?xml version="1.0" encoding="UTF-8"?>
<svg width="166px" height="56px" viewBox="0 0 166 56" version="1.1" xmlns="http://www.w3.org/2000/svg" xmlns:xlink="http://www.w3.org/1999/xlink">
    <!-- Generator: Sketch 52.3 (67297) - http://www.bohemiancoding.com/sketch -->
    <title>LOGO/white</title>
    <desc>Created with Sketch.</desc>
    <g id="LOGO/white" stroke="none" stroke-width="1" fill="none" fill-rule="evenodd">
        <path d="M27.6479568,35.6280072 L27.6383712,35.6335568 L27.6338306,35.6345658 L27.6282811,35.6360793 L27.6287856,35.6375928 C24.8646054,36.3771964 22.0832721,37.0148901 19.329182,37.5496649 C16.5811459,38.0834306 13.9784072,38.4905658 11.5562811,38.7740973 C8.76435315,39.1010162 6.14446126,39.2942414 3.75411892,39.3542775 C4.56687568,40.6669982 5.49314595,41.8899171 6.51628108,43.0134486 C8.26993874,42.9281874 10.1002811,42.7753225 11.9952,42.553845 C14.6246775,42.2455928 17.3262991,41.8273586 20.055164,41.2976288 C22.7734342,40.7699171 25.6400288,40.1080072 28.622155,39.3088721 L28.6377946,39.305845 L28.6382991,39.3053405 L28.6388036,39.3078631 C36.6246054,37.1682595 43.8450739,34.4187099 49.6327495,31.4784577 C49.686227,31.2332685 49.7366775,30.9870703 49.7830919,30.7393586 C50.021218,29.4740613 50.1609658,28.1774847 50.1982991,26.8622414 C44.3359568,30.1334486 36.4969658,33.256836 27.6479568,35.6280072 Z M49.3537586,19.6594306 L49.3557766,19.6589261 L49.3547676,19.6558991 L49.348209,19.6231063 C49.1827315,19.0045838 48.9945514,18.3981694 48.786191,17.8038631 L0.426911712,30.7615568 C0.542443243,31.3704937 0.680677477,31.9799351 0.843127928,32.5883676 L0.84110991,32.5888721 L0.842118919,32.5913946 L0.851704505,32.6403315 L0.853218018,32.6433586 L0.854227027,32.6433586 C1.01819099,33.2553225 1.20435315,33.8551784 1.41019099,34.4434306 L49.7694703,21.4857369 C49.6544432,20.877809 49.516209,20.2683676 49.3537586,19.6594306 Z M43.7729297,42.101809 L42.9077045,42.491791 L42.0298667,42.8742054 L41.1404252,43.2485477 L40.2388757,43.615827 L39.326227,43.9745297 L38.4029838,44.3246559 L37.4681369,44.6662054 L36.5237045,44.9986739 L35.5676685,45.3225658 L34.6025514,45.6368721 L33.6268396,45.9420973 L32.6415423,46.2372324 L31.6476685,46.522782 L30.4752,46.8436468 L30.4499748,46.8451604 L30.3435243,46.8739171 L30.0635243,46.9475748 L29.7825153,47.0202234 L29.5030198,47.0918631 L29.2235243,47.1619892 L28.9435243,47.2316108 L28.6635243,47.3007279 L28.3850378,47.367827 L28.1060468,47.4339171 L27.8270559,47.4995027 L27.5485694,47.5635748 L27.2705874,47.6271423 L26.9926054,47.6897009 L26.7146234,47.7502414 L26.4371459,47.810782 L26.160173,47.8703135 L25.8832,47.928836 L25.606227,47.985845 L25.3302631,48.041845 L25.0542991,48.0973405 L24.7783351,48.151827 L24.5023712,48.2053045 L24.2269117,48.2572685 L23.9524613,48.3087279 L23.6780108,48.3586739 L23.4035604,48.4081153 L23.1301189,48.4565477 L22.856173,48.5034667 L22.583236,48.5498811 L22.3108036,48.5952865 L22.0378667,48.6396829 L21.7659387,48.6830703 L21.4909838,48.7259532 L21.2155243,48.767827 L20.9405694,48.8086919 L20.6681369,48.8485477 L20.3957045,48.8868901 L20.1232721,48.9247279 L19.8518486,48.9620613 L19.5819387,48.9973766 L19.3130378,49.0321874 L19.0436324,49.0664937 L18.7747315,49.098782 L18.5073441,49.1310703 L18.2404613,49.1613405 L17.9750919,49.1911063 L17.7097225,49.2193586 L17.4463712,49.2471063 L17.1825153,49.273845 L16.920173,49.2995748 L16.6578306,49.323791 L16.3975063,49.3475027 L16.1376865,49.3702054 L15.8778667,49.3918991 L15.7012901,49.4060252 C20.5692541,51.3740973 26.0955964,51.8372324 31.5629117,50.3787099 L31.5634162,50.3807279 L31.5664432,50.3797189 L31.5916685,50.3716468 C37.0715964,48.9030342 41.6393802,45.7317189 44.8793081,41.5821694 L44.6260468,41.703755 L43.7729297,42.101809 Z M7.25992072,9.77618739 L8.53581261,9.22224144 L9.83541622,8.68544865 L11.1587315,8.16580901 L12.5047495,7.66433153 L13.8739748,7.18152072 L15.2638847,6.71788108 L16.6744793,6.27391712 L18.1052541,5.85114234 L19.556209,5.44905225 L20.5818667,5.18469189 L21.5822991,4.93546667 L22.5827315,4.69885405 L23.5796324,4.47485405 L24.5724973,4.26498018 L25.5618306,4.06771892 L26.5461189,3.88357477 L27.5258667,3.71204324 L28.5005694,3.55362883 L29.4697225,3.40833153 L30.4333261,3.27514234 L31.3903712,3.15507027 L32.3413622,3.04761081 L33.2857946,2.95276396 L34.223164,2.87052973 L34.5142631,2.84833153 C32.9724973,2.22375495 31.3651459,1.74851171 29.7144072,1.43874595 C27.9319928,1.10425946 26.0900468,0.962493694 24.2183351,1.02959279 C22.3748757,1.09568288 20.504173,1.36962883 18.6334703,1.86858378 L18.6334703,1.86707027 L18.6304432,1.86757477 L18.5815063,1.87766486 L18.5779748,1.87867387 L18.5779748,1.87917838 C13.1000649,3.35182703 8.53379459,6.5291964 5.2973982,10.6863135 L6.01026306,10.345773 L7.25992072,9.77618739 Z M46.1740449,12.4679392 C46.2141921,12.4571378 46.2543585,12.4463521 46.2945441,12.435582 L46.2940396,12.434573 L46.2995892,12.4330595 L46.3157333,12.4295279 C52.1281297,10.872627 57.7467964,9.79752793 62.8725622,9.19262703 C62.8629766,9.20978018 62.856418,9.22895135 62.8468324,9.24660901 C63.578364,7.84761802 65.2028685,7.09035676 66.7910486,7.51565405 C68.6294631,8.00855495 69.7207063,9.89842883 69.2283099,11.7368432 C68.7359135,13.5752577 66.8455351,14.6670054 65.0071207,14.1741045 C64.2372468,13.9682667 63.6005622,13.5147171 63.1545802,12.9249514 C63.1697153,12.944627 63.1818234,12.9668252 63.1974631,12.9865009 C58.2906523,13.5702126 52.8990126,14.6049514 47.3085982,16.1013117 L47.3091027,16.1028252 L47.3035532,16.1038342 L47.287409,16.1068613 C38.4156973,18.4840865 30.5736793,21.6029333 24.7405982,24.8544649 C24.7865081,23.302609 24.9772108,21.7724468 25.3026162,20.279618 C30.6046532,17.5809102 37.0837233,15.0505304 44.2390359,13.0047876 C37.9465948,13.3064094 30.4538685,14.4990231 22.5681009,16.6102054 L22.5681009,16.6117189 L22.5630559,16.6127279 L22.5469117,16.6162595 C13.6746955,18.9934847 5.83318198,22.111827 0.000100900901,25.3643676 C0.0455063063,23.8120072 0.236713514,22.2813405 0.562118919,20.7890162 C6.36694775,17.8341333 13.5838847,15.0810523 21.5535423,12.9444757 L21.5530378,12.9434667 L21.5585874,12.9419532 L21.5747315,12.9384216 C29.5635604,10.798818 37.1896505,9.56833153 43.6674883,9.22022342 C44.5837347,10.2255123 45.4237609,11.3101645 46.1740449,12.4679392 Z M64.3452108,10.4286631 C64.1151568,11.2868252 64.6247063,12.1692036 65.482364,12.3987532 C66.3405261,12.6288072 67.2229045,12.1192577 67.4529586,11.2610955 C67.6825081,10.4034378 67.1729586,9.52105946 66.3153009,9.29150991 C65.4571387,9.06145586 64.5747604,9.5705009 64.3452108,10.4286631 Z M72.6851748,30.7889514 C72.9152288,29.9312937 72.4061838,29.0489153 71.5480216,28.8188613 C70.6898595,28.5893117 69.8079856,29.0983568 69.5779315,29.9565189 C69.3478775,30.8146811 69.8569225,31.696555 70.7150847,31.926609 C71.5727423,32.1566631 72.4556252,31.6471135 72.6851748,30.7889514 Z M72.0237694,27.0435099 C73.8621838,27.5359063 74.953427,29.4262847 74.4610306,31.2646991 C73.9681297,33.103618 72.0777514,34.1948613 70.2393369,33.7024649 C69.911409,33.6146811 69.6082018,33.4799784 69.3327423,33.3114739 C69.3362739,33.3134919 69.3387964,33.3165189 69.3423279,33.3190414 C64.5989766,35.3602667 59.1922018,37.241564 53.3803099,38.7989694 L53.3798054,38.7964468 L53.3787964,38.7964468 L53.3621477,38.7994739 C50.3810306,39.598609 47.514436,40.2610234 44.7961658,40.7887351 C42.0667964,41.3184649 39.3656793,41.7372036 36.7362018,42.0444468 C34.8412829,42.2669333 33.0109405,42.4192937 31.2567784,42.5040505 C30.2346523,41.3810234 29.308382,40.1581045 28.4946162,38.8448793 C30.8854631,38.7853477 33.505355,38.592627 36.2967784,38.2652036 C38.719409,37.9816721 41.3221477,37.5745369 44.0701838,37.0407712 C46.8242739,36.5059964 49.6051027,35.8677982 52.3697874,35.1281946 L52.3692829,35.1271856 L52.3738234,35.1256721 L52.3798775,35.1241586 L52.3884541,35.1191135 C57.985427,33.6192216 63.1777874,31.818645 67.7218595,29.8712577 C67.7198414,29.8823568 67.7208505,29.8939604 67.7193369,29.9050595 C67.7390126,29.7637982 67.7642378,29.6220324 67.8025802,29.4807712 C68.2949766,27.6423568 70.1848505,26.5511135 72.0237694,27.0435099 Z M28.411373,32.7978883 C29.2695351,33.0279423 30.1519135,32.5188973 30.3814631,31.6607351 C30.6115171,30.802573 30.1019676,29.9201946 29.2443099,29.690645 C28.3861477,29.460591 27.5037694,29.969636 27.2742198,30.8277982 C27.0441658,31.6859604 27.5537153,32.5683387 28.411373,32.7978883 Z M32.1573189,32.1364829 C31.664418,33.9748973 29.7745441,35.0661405 27.9356252,34.5737441 C26.0972108,34.0808432 25.0059676,32.1909694 25.498364,30.3520505 C25.9912649,28.513636 27.8816432,27.4223928 29.7200577,27.9147892 C30.264418,28.0610955 30.7411748,28.3315099 31.1326703,28.6851676 C31.1245982,28.6770955 31.1175351,28.6680144 31.1089586,28.6604468 L73.5276973,17.2944649 C73.7355532,17.8892757 73.9237333,18.4956901 74.0892108,19.1142126 L74.0957694,19.1470054 L74.0962739,19.1495279 L74.0947604,19.1500324 C74.2567063,19.7594739 74.3949405,20.3689153 74.5104721,20.9768432 L32.0942559,32.3423207 C32.1169586,32.2747171 32.1381477,32.206609 32.1573189,32.1364829 Z M32.001427,9.26729369 L30.7512649,9.83687928 L30.0384,10.1774198 C33.2747964,6.0197982 37.8405622,2.84293333 43.3194811,1.37028468 L43.3189766,1.36927568 L43.3225081,1.36877117 L43.371445,1.35868108 L43.3739676,1.35767207 L43.3744721,1.35918559 C45.2451748,0.86123964 47.1158775,0.586284685 48.9588324,0.520194595 C50.8310486,0.4536 52.6729946,0.595365766 54.4549045,0.929852252 C56.1056432,1.23961802 57.7129946,1.71435676 59.2552649,2.33943784 L58.9636613,2.36163604 L58.0267964,2.44387027 L57.082364,2.53871712 L56.131373,2.64567207 L55.1738234,2.76624865 L54.2107243,2.89893333 L53.2415712,3.04423063 L52.2668685,3.20314955 L51.2866162,3.37468108 L50.3023279,3.55882523 L49.3134991,3.75608649 L48.3206342,3.96596036 L47.3232288,4.18996036 L46.3233009,4.42657297 L45.322364,4.6757982 L44.2972108,4.94015856 L42.8462559,5.34174414 L41.4154811,5.76502342 L40.0048865,6.20848288 L38.6149766,6.67262703 L37.2462559,7.15543784 L35.8997333,7.65691532 L34.576418,8.17655495 L33.2763099,8.71334775 L32.001427,9.26729369 Z M68.5139315,41.5924108 L69.3670486,41.1948613 L69.6203099,41.0732757 C66.380382,45.2233297 61.8120937,48.393636 56.3321658,49.8627532 L56.3069405,49.8713297 L56.304418,49.8718342 L56.3039135,49.8698162 C50.8365982,51.3283387 45.3107604,50.8652036 40.4417874,48.8971315 L40.6188685,48.8830054 L40.8781838,48.8613117 L41.1380036,48.838609 L41.3988324,48.8148973 L41.6606703,48.7906811 L41.9235171,48.7649514 L42.187373,48.7382126 L42.4507243,48.7104649 L42.7155892,48.6817081 L42.9814631,48.6524468 L43.2483459,48.6216721 L43.5152288,48.5898883 L43.7846342,48.5576 L44.0535351,48.5232937 L44.3229405,48.4884829 L44.5928505,48.4531676 L44.8642739,48.4163387 L45.1367063,48.3779964 L45.4091387,48.3391495 L45.6820757,48.2997982 L45.9565261,48.2589333 L46.2314811,48.216555 L46.5069405,48.1736721 L46.7788685,48.1307892 L47.0518054,48.0858883 L47.3242378,48.0409874 L47.5976793,47.9940685 L47.8711207,47.9476541 L48.1445622,47.8992216 L48.4190126,47.8497802 L48.6934631,47.7993297 L48.968418,47.7483748 L49.243373,47.6964108 L49.5193369,47.6424288 L49.7953009,47.5884468 L50.0712649,47.5329514 L50.3472288,47.4764468 L50.6242018,47.4199423 L50.9016793,47.3614198 L51.1781477,47.3018883 L51.4556252,47.2413477 L51.7331027,47.1803027 L52.0120937,47.1182486 L52.2895712,47.0546811 L52.5680577,46.9901045 L52.8465441,46.9250234 L53.1260396,46.8584288 L53.4045261,46.7913297 L53.6845261,46.7227171 L53.9640216,46.6530955 L54.2440216,46.5829694 L54.5240216,46.5113297 L54.8040216,46.4381766 L55.0840216,46.3650234 L55.1904721,46.3367712 L55.2162018,46.3347532 L56.3881658,46.0138883 L57.3825441,45.7283387 L58.3678414,45.4326991 L59.3430486,45.1279784 L60.3086703,44.8136721 L61.2647063,44.4902847 L62.2096432,44.1568072 L63.1439856,43.8152577 L64.0672288,43.4651315 L64.9798775,43.1064288 L65.8809225,42.7401586 L66.7708685,42.3653117 L67.6482018,41.9823928 L68.5139315,41.5924108 Z M108.13267,33.8348973 C108.13267,36.7368072 107.015697,38.7956901 104.779733,40.0105369 C103.328778,40.7955459 101.38795,41.1870414 98.9572468,41.1870414 L84.8997333,41.1870414 L84.8997333,36.3644829 L99.4869766,36.3644829 C100.46622,36.2469333 101.171517,36.0910414 101.602868,35.8957982 C102.427733,35.4674739 102.839409,34.7838703 102.839409,33.8480144 C102.839409,32.3662847 101.347589,31.1363027 98.3684901,30.1610955 C96.0149766,29.4976721 94.2128865,28.9709694 92.9576793,28.5814919 C90.1718054,27.6451315 88.1936432,26.6487351 87.0176432,25.5953297 C85.6055351,24.3481946 84.8997333,22.6697081 84.8997333,20.5639063 C84.8997333,17.7553297 85.9788685,15.7262126 88.1346162,14.477564 C89.7818234,13.5023568 91.9184,13.0150054 94.5448505,13.0150054 L106.721571,13.0150054 L106.721571,17.954609 L93.545427,17.954609 C91.3891748,17.954609 90.3115532,18.7981405 90.3115532,20.4841946 C90.4270847,21.6218523 91.4487063,22.5627532 93.3688505,23.3074018 C93.9964541,23.5425009 95.8187243,24.0333838 98.8402018,24.7775279 C102.093247,25.7184288 104.456346,26.9151135 105.927481,28.364555 C107.398112,29.8160144 108.13267,31.6397982 108.13267,33.8348973 Z M162.242796,15.1314018 C164.203301,16.9758703 165.183049,19.1901405 165.183049,21.7777441 L165.183049,41.1870414 L160.007841,41.1870414 L160.007841,23.3654198 C160.007841,21.7984288 159.674364,20.4841946 159.007914,19.4252396 C158.106364,18.0141405 156.752778,17.3078342 154.949679,17.3078342 C152.987661,17.3078342 151.517031,17.9747892 150.538796,19.3076901 C149.793139,20.3283027 149.421823,21.6808793 149.421823,23.3654198 L149.421823,41.1870414 L144.128562,41.1870414 L144.128562,23.7190775 C144.128562,21.7984288 143.677031,20.247582 142.774977,19.071582 C141.872418,17.895582 140.577859,17.3078342 138.892814,17.3078342 C136.814256,17.3078342 135.36431,18.0328072 134.541463,19.4842667 C133.912346,20.5820685 133.599553,22.1117261 133.599553,24.0707171 L133.599553,41.1870414 L128.422832,41.1870414 L128.422832,21.7777441 C128.422832,19.2289874 129.393499,17.0237982 131.334328,15.1616721 C133.275661,13.2990414 135.834508,12.3672216 139.009859,12.3672216 C140.89267,12.3672216 142.559049,12.8379243 144.008995,13.7783207 C144.990256,14.4064288 145.910977,15.269636 146.774688,16.3669333 C147.557679,15.2292757 148.617139,14.3080505 149.950544,13.6027532 C151.517031,12.7783928 153.302977,12.3672216 155.301823,12.3672216 C157.96813,12.3672216 160.281787,13.2889514 162.242796,15.1314018 Z M114.778508,41.1870414 L114.778508,12.9554739 L119.953715,12.9554739 L119.953715,41.1870414 L114.778508,41.1870414 Z M115.279481,8.86747387 C114.631697,8.2994018 114.307805,7.50581622 114.307805,6.4852036 C114.307805,5.66286126 114.622112,4.95605045 115.248706,4.36729369 C115.874796,3.77954595 116.601787,3.48541982 117.424634,3.48541982 C118.20813,3.48541982 118.914436,3.77954595 119.54204,4.36729369 C120.169643,4.95605045 120.48395,5.7006991 120.48395,6.60275315 C120.48395,7.54415856 120.197895,8.2994018 119.630832,8.86747387 C119.061247,9.43605045 118.36604,9.72059099 117.543697,9.72059099 C116.680995,9.72059099 115.924742,9.43605045 115.279481,8.86747387 Z M139.552706,51.5046631 C139.614256,51.5046631 139.645031,51.5404829 139.645031,51.6121225 L139.645031,52.0258162 C139.645031,52.0979604 139.614256,52.1332757 139.552706,52.1332757 L137.023625,52.1332757 C136.951481,52.1332757 136.916166,52.0979604 136.916166,52.0258162 L136.916166,51.6121225 C136.916166,51.5404829 136.951481,51.5046631 137.023625,51.5046631 L139.552706,51.5046631 Z M147.187877,46.0156541 C147.269607,46.0156541 147.310472,46.0514739 147.310472,46.122609 L147.310472,55.3686631 C147.310472,55.4408072 147.274652,55.4761225 147.203013,55.4761225 L146.759049,55.4761225 C146.676814,55.4761225 146.635445,55.4408072 146.635445,55.3686631 L146.635445,50.998645 C146.635445,50.9275099 146.605175,50.8911856 146.54413,50.8911856 L142.281571,50.8911856 C142.210436,50.8911856 142.174616,50.9275099 142.174616,50.998645 L142.174616,55.3686631 C142.174616,55.4408072 142.138292,55.4761225 142.067157,55.4761225 L141.637823,55.4761225 C141.556094,55.4761225 141.515229,55.4408072 141.515229,55.3686631 L141.515229,46.122609 C141.515229,46.0514739 141.556094,46.0156541 141.637823,46.0156541 L142.067157,46.0156541 C142.138292,46.0156541 142.174616,46.0514739 142.174616,46.122609 L142.174616,50.2171676 C142.174616,50.2782126 142.210436,50.3089874 142.281571,50.3089874 L146.54413,50.3089874 C146.595085,50.3089874 146.623337,50.3014198 146.628382,50.2857802 C146.632923,50.270645 146.635445,50.2474378 146.635445,50.2171676 L146.635445,46.122609 C146.635445,46.0514739 146.676814,46.0156541 146.759049,46.0156541 L147.187877,46.0156541 Z M165.064995,46.0156541 C165.13613,46.0156541 165.173968,46.0307892 165.179517,46.061564 C165.184562,46.0923387 165.18204,46.1332036 165.172454,46.1841586 L163.148382,55.3837982 C163.127697,55.4448432 163.086832,55.4761225 163.025283,55.4761225 L162.365895,55.4761225 C162.314941,55.4761225 162.279625,55.4503928 162.258941,55.3994378 C162.064706,54.5508613 161.872995,53.7103568 161.683805,52.8774198 C161.494616,52.0439784 161.298364,51.2029694 161.09404,50.3548973 L160.373103,47.1961946 C160.373103,47.1760144 160.368058,47.1654198 160.357968,47.1654198 C160.347877,47.1654198 160.337283,47.1760144 160.327193,47.1961946 L159.637535,50.3851676 L158.533175,55.3994378 C158.502905,55.4503928 158.456995,55.4761225 158.395445,55.4761225 L157.751697,55.4761225 C157.700238,55.4761225 157.664923,55.4503928 157.644238,55.3994378 L155.559121,46.1533838 L155.559121,46.1079784 C155.559121,46.0464288 155.594941,46.0156541 155.66658,46.0156541 L156.126688,46.0156541 C156.197823,46.0156541 156.243733,46.061564 156.263914,46.1533838 C156.478832,47.1553297 156.698796,48.1542486 156.923301,49.1511495 C157.14831,50.1475459 157.363229,51.1525189 157.567553,52.164555 C157.659373,52.5631135 157.743625,52.9591495 157.82031,53.3526631 C157.897499,53.7456721 157.976202,54.1417081 158.057932,54.5407712 C158.068022,54.5614559 158.081139,54.5715459 158.096274,54.5715459 C158.111914,54.5715459 158.125031,54.5614559 158.134616,54.5407712 L158.594724,52.3784649 C158.614905,52.2967351 158.635589,52.2099604 158.656274,52.1181405 C158.676454,52.0258162 158.704202,51.8956541 158.740526,51.7271495 C158.776346,51.5581405 158.822256,51.3361586 158.878256,51.0601946 C158.934256,50.7842306 159.011445,50.4290595 159.10831,49.9946811 C159.205175,49.5603027 159.323229,49.028555 159.460959,48.4004468 C159.599193,47.7713297 159.765175,47.012555 159.959409,46.122609 C159.969499,46.0923387 159.982112,46.066609 159.997751,46.0464288 C160.012886,46.0262486 160.051229,46.0156541 160.112274,46.0156541 L160.603157,46.0156541 C160.674796,46.0156541 160.720202,46.061564 160.740886,46.1533838 C160.935121,46.9918703 161.131877,47.8348973 161.331157,48.6834739 C161.530941,49.5320505 161.727193,50.3801225 161.921932,51.2286991 L162.672634,54.5407712 C162.683229,54.5715459 162.698364,54.5892036 162.718544,54.5942486 C162.739229,54.5997982 162.749319,54.5821405 162.749319,54.5407712 L163.424346,51.1676541 C163.597895,50.3296721 163.771445,49.4911856 163.945499,48.6526991 C164.119553,47.8147171 164.293103,46.9762306 164.466148,46.1382486 C164.497427,46.0565189 164.548382,46.0156541 164.620022,46.0156541 L165.064995,46.0156541 Z M153.980022,52.9919423 L153.980022,48.4846991 C153.980022,48.2183207 153.93613,47.965564 153.849355,47.7254198 C153.76258,47.4847712 153.632418,47.2754018 153.458868,47.0968072 C153.284814,46.9177081 153.067373,46.7744288 152.807049,46.6674739 C152.54622,46.5600144 152.236959,46.5065369 151.879265,46.5065369 C151.542256,46.5065369 151.240058,46.5600144 150.974688,46.6674739 C150.709319,46.7744288 150.489355,46.9177081 150.315301,47.0968072 C150.141751,47.2754018 150.009067,47.4847712 149.916742,47.7254198 C149.824923,47.965564 149.779013,48.2183207 149.779013,48.4846991 L149.779013,52.9157622 C149.779013,53.1917261 149.819877,53.454573 149.902112,53.7048072 C149.983337,53.9555459 150.108454,54.1755099 150.276959,54.3646991 C150.445968,54.5533838 150.662905,54.7072577 150.928778,54.8243027 C151.194148,54.9418523 151.511481,55.0008793 151.879265,55.0008793 C152.553787,55.0008793 153.072418,54.8167351 153.435661,54.4484468 C153.798905,54.0806631 153.980022,53.5948252 153.980022,52.9919423 Z M153.88013,46.6139964 C154.120274,46.8385009 154.306436,47.1063928 154.439625,47.4186811 C154.572814,47.7299604 154.638905,48.0755459 154.638905,48.4534198 L154.638905,53.0227171 C154.638905,53.4010955 154.577859,53.7456721 154.455265,54.0574559 C154.332166,54.3697441 154.151049,54.637636 153.910905,54.862645 C153.67076,55.0871495 153.379661,55.2637261 153.037103,55.3918703 C152.69404,55.5195099 152.308598,55.5830775 151.879265,55.5830775 C151.429751,55.5830775 151.031193,55.5169874 150.683589,55.3837982 C150.335986,55.2511135 150.047409,55.0649514 149.817355,54.8243027 C149.587301,54.5841586 149.413751,54.3031495 149.296202,53.9807712 C149.178148,53.6588973 149.119625,53.3143207 149.119625,52.9460324 L149.119625,48.4534198 C149.119625,48.085636 149.18622,47.748627 149.318905,47.4418883 C149.451589,47.1351495 149.636238,46.8667532 149.870832,46.6366991 C150.105932,46.406645 150.39249,46.2275459 150.729499,46.0999063 C151.067013,45.9722667 151.445391,45.9081946 151.86413,45.9081946 C152.283373,45.9081946 152.663769,45.9697441 153.005823,46.0923387 C153.348886,46.2149333 153.639986,46.3884829 153.88013,46.6139964 Z M135.781535,46.0156541 C135.853175,46.0156541 135.891013,46.0307892 135.896562,46.061564 C135.901607,46.0923387 135.899085,46.1332036 135.888995,46.1841586 L133.865427,55.3837982 C133.844742,55.4448432 133.803877,55.4761225 133.742328,55.4761225 L133.082941,55.4761225 C133.031986,55.4761225 132.996166,55.4503928 132.975481,55.3994378 C132.781751,54.5508613 132.590544,53.7103568 132.401355,52.8774198 C132.212166,52.0439784 132.015409,51.2029694 131.811085,50.3548973 L131.090148,47.1961946 C131.090148,47.1760144 131.084598,47.1654198 131.075013,47.1654198 C131.064418,47.1654198 131.054328,47.1760144 131.044238,47.1961946 L130.35458,50.3851676 L129.249715,55.3994378 C129.219445,55.4503928 129.173535,55.4761225 129.111986,55.4761225 L128.468742,55.4761225 C128.417283,55.4761225 128.381968,55.4503928 128.361283,55.3994378 L126.276166,46.1533838 L126.276166,46.1079784 C126.276166,46.0464288 126.311481,46.0156541 126.383625,46.0156541 L126.843229,46.0156541 C126.914868,46.0156541 126.960778,46.061564 126.980959,46.1533838 C127.195877,47.1553297 127.415841,48.1542486 127.640346,49.1511495 C127.865355,50.1475459 128.080274,51.1525189 128.284094,52.164555 C128.376418,52.5631135 128.46067,52.9591495 128.537355,53.3526631 C128.614544,53.7456721 128.693247,54.1417081 128.774977,54.5407712 C128.785571,54.5614559 128.798184,54.5715459 128.813319,54.5715459 C128.828959,54.5715459 128.841571,54.5614559 128.851661,54.5407712 L129.311265,52.3784649 C129.332454,52.2967351 129.352634,52.2099604 129.372814,52.1181405 C129.393499,52.0258162 129.421247,51.8956541 129.457571,51.7271495 C129.492886,51.5581405 129.539301,51.3361586 129.595301,51.0601946 C129.651301,50.7842306 129.727986,50.4290595 129.825355,49.9946811 C129.92222,49.5603027 130.039769,49.028555 130.178004,48.4004468 C130.316238,47.7713297 130.48222,47.012555 130.676454,46.122609 C130.686544,46.0923387 130.699157,46.066609 130.714796,46.0464288 C130.729932,46.0262486 130.768274,46.0156541 130.829319,46.0156541 L131.320202,46.0156541 C131.391841,46.0156541 131.437247,46.061564 131.457932,46.1533838 C131.652166,46.9918703 131.848923,47.8348973 132.048202,48.6834739 C132.247986,49.5320505 132.444238,50.3801225 132.638977,51.2286991 L133.389679,54.5407712 C133.399769,54.5715459 133.414905,54.5892036 133.435589,54.5942486 C133.455769,54.5997982 133.466868,54.5821405 133.466868,54.5407712 L134.141391,51.1676541 C134.314436,50.3296721 134.48849,49.4911856 134.662544,48.6526991 C134.836094,47.8147171 135.009643,46.9762306 135.183193,46.1382486 C135.214472,46.0565189 135.264923,46.0156541 135.337067,46.0156541 L135.781535,46.0156541 Z M94.2482018,46.0156541 C94.3198414,46.0156541 94.3581838,46.0307892 94.3637333,46.061564 C94.3687784,46.0923387 94.3662559,46.1332036 94.3556613,46.1841586 L92.3320937,55.3837982 C92.3119135,55.4448432 92.2710486,55.4761225 92.2094991,55.4761225 L91.5501117,55.4761225 C91.4991568,55.4761225 91.4633369,55.4503928 91.4431568,55.3994378 C91.2489225,54.5508613 91.0572108,53.7103568 90.8675171,52.8774198 C90.6788324,52.0439784 90.4820757,51.2029694 90.2777514,50.3548973 L89.5573189,47.1961946 C89.5573189,47.1760144 89.5522739,47.1654198 89.5416793,47.1654198 C89.5315892,47.1654198 89.5209946,47.1760144 89.511409,47.1961946 L88.8217514,50.3851676 L87.7168865,55.3994378 C87.6871207,55.4503928 87.6407063,55.4761225 87.5796613,55.4761225 L86.935409,55.4761225 C86.8844541,55.4761225 86.8486342,55.4503928 86.8279495,55.3994378 L84.7433369,46.1533838 L84.7433369,46.1079784 C84.7433369,46.0464288 84.7786523,46.0156541 84.8507964,46.0156541 L85.3104,46.0156541 C85.3820396,46.0156541 85.4279495,46.061564 85.4481297,46.1533838 C85.6630486,47.1553297 85.8825081,48.1542486 86.1075171,49.1511495 C86.3325261,50.1475459 86.547445,51.1525189 86.7512649,52.164555 C86.8435892,52.5631135 86.9278414,52.9591495 87.0045261,53.3526631 C87.0812108,53.7456721 87.160418,54.1417081 87.2421477,54.5407712 C87.2522378,54.5614559 87.265355,54.5715459 87.2804901,54.5715459 C87.2956252,54.5715459 87.3087423,54.5614559 87.3188324,54.5407712 L87.778436,52.3784649 C87.7991207,52.2967351 87.8193009,52.2099604 87.8399856,52.1181405 C87.8601658,52.0258162 87.888418,51.8956541 87.9242378,51.7271495 C87.9600577,51.5581405 88.0059676,51.3361586 88.0624721,51.0601946 C88.1184721,50.7842306 88.1951568,50.4290595 88.2925261,49.9946811 C88.389391,49.5603027 88.507445,49.028555 88.6446703,48.4004468 C88.7829045,47.7713297 88.9488865,47.012555 89.1431207,46.122609 C89.1537153,46.0923387 89.1663279,46.066609 89.1819676,46.0464288 C89.1971027,46.0262486 89.235445,46.0156541 89.2964901,46.0156541 L89.787373,46.0156541 C89.8585081,46.0156541 89.904418,46.061564 89.9251027,46.1533838 C90.1193369,46.9918703 90.3160937,47.8348973 90.515373,48.6834739 C90.7151568,49.5320505 90.911409,50.3801225 91.1056432,51.2286991 L91.8568505,54.5407712 C91.867445,54.5715459 91.8825802,54.5892036 91.9027604,54.5942486 C91.923445,54.5997982 91.9335351,54.5821405 91.9335351,54.5407712 L92.6080577,51.1676541 C92.7816072,50.3296721 92.9556613,49.4911856 93.1297153,48.6526991 C93.3027604,47.8147171 93.4768144,46.9762306 93.6508685,46.1382486 C93.6811387,46.0565189 93.7320937,46.0156541 93.8042378,46.0156541 L94.2482018,46.0156541 Z M110.385283,51.4970955 C110.472058,51.7881946 110.525535,52.0873658 110.545715,52.3941045 L110.745499,55.3686631 C110.745499,55.4408072 110.709175,55.4761225 110.63804,55.4761225 L110.239481,55.4761225 C110.167337,55.4761225 110.132022,55.4408072 110.132022,55.3686631 L109.932238,52.5631135 C109.912058,52.3280144 109.87876,52.0873658 109.83285,51.8421766 C109.786941,51.5969874 109.692598,51.3719784 109.549319,51.1676541 C109.40604,50.9633297 109.201715,50.7943207 108.936346,50.661636 C108.669968,50.5284468 108.317823,50.4623568 107.8784,50.4623568 C107.459157,50.4623568 107.112058,50.5259243 106.836094,50.653564 C106.559625,50.7812036 106.340166,50.9476901 106.176202,51.1525189 C106.012742,51.3568432 105.894688,51.5838703 105.824058,51.834609 C105.751914,52.0848432 105.716598,52.3330595 105.716598,52.5782486 L105.716598,55.3686631 C105.716598,55.4408072 105.685823,55.4761225 105.624274,55.4761225 L105.16467,55.4761225 C105.082941,55.4761225 105.041571,55.4448432 105.041571,55.3837982 L105.041571,46.1533838 C105.041571,46.061564 105.082941,46.0156541 105.16467,46.0156541 L105.624274,46.0156541 C105.685823,46.0156541 105.716598,46.061564 105.716598,46.1533838 L105.716598,50.5239063 C105.716598,50.5849514 105.724166,50.6283387 105.739301,50.653564 C105.754941,50.6792937 105.793283,50.6560865 105.854328,50.5849514 L109.840923,46.122609 C109.901968,46.061564 109.963517,46.0307892 110.024562,46.0307892 L110.48467,46.0307892 C110.545715,46.0307892 110.579517,46.0464288 110.584058,46.0772036 C110.589103,46.1079784 110.581535,46.1382486 110.56085,46.1690234 L107.280562,49.8791495 C107.229103,49.9311135 107.213968,49.9639063 107.234148,49.9790414 C107.254832,49.9946811 107.290148,50.0022486 107.341607,50.0022486 C107.464202,49.9714739 107.599409,49.9512937 107.747733,49.9406991 C107.895553,49.9311135 108.031769,49.925564 108.154364,49.925564 C108.593787,49.9356541 108.962076,50.0123387 109.257715,50.1551135 C109.554364,50.2983928 109.794508,50.4850595 109.978652,50.7151135 C110.162292,50.9451676 110.298004,51.2054919 110.385283,51.4970955 Z M100.472778,54.8934198 C100.554508,54.8934198 100.595877,54.9292396 100.595877,55.0008793 L100.595877,55.3535279 C100.595877,55.4352577 100.554508,55.4761225 100.472778,55.4761225 L95.5362018,55.4761225 C95.4544721,55.4761225 95.4136072,55.4352577 95.4136072,55.3535279 L95.4136072,46.1382486 C95.4136072,46.0565189 95.4544721,46.0156541 95.5362018,46.0156541 L100.289139,46.0156541 C100.360778,46.0156541 100.396598,46.0565189 100.396598,46.1382486 L100.396598,46.4908973 C100.396598,46.5625369 100.360778,46.5983568 100.289139,46.5983568 L96.1955892,46.5983568 C96.1547243,46.5983568 96.1239495,46.6003748 96.1032649,46.6059243 C96.0830847,46.6109694 96.0729946,46.6387171 96.0729946,46.6901766 L96.0729946,50.2015279 C96.0729946,50.2630775 96.1088144,50.2933477 96.1804541,50.2933477 L99.7528505,50.2933477 C99.8239856,50.2933477 99.8598054,50.3347171 99.8598054,50.4164468 L99.8598054,50.768591 C99.8598054,50.8407351 99.8239856,50.8760505 99.7528505,50.8760505 L96.1804541,50.8760505 C96.1088144,50.8760505 96.0729946,50.9118703 96.0729946,50.9835099 L96.0729946,54.8010955 C96.0729946,54.862645 96.1088144,54.8934198 96.1804541,54.8934198 L100.472778,54.8934198 Z M124.696562,52.9919423 L124.696562,48.4846991 C124.696562,48.2183207 124.653175,47.965564 124.5664,47.7254198 C124.479625,47.4847712 124.349463,47.2754018 124.175409,47.0968072 C124.001859,46.9177081 123.784418,46.7744288 123.524094,46.6674739 C123.263265,46.5600144 122.954004,46.5065369 122.59631,46.5065369 C122.259301,46.5065369 121.957103,46.5600144 121.691733,46.6674739 C121.426364,46.7744288 121.2064,46.9177081 121.032346,47.0968072 C120.858796,47.2754018 120.726112,47.4847712 120.633787,47.7254198 C120.541968,47.965564 120.496058,48.2183207 120.496058,48.4846991 L120.496058,52.9157622 C120.496058,53.1917261 120.536923,53.454573 120.618652,53.7048072 C120.700382,53.9555459 120.825499,54.1755099 120.994004,54.3646991 C121.162508,54.5533838 121.37995,54.7072577 121.645823,54.8243027 C121.911697,54.9418523 122.228022,55.0008793 122.59631,55.0008793 C123.270832,55.0008793 123.789463,54.8167351 124.152706,54.4484468 C124.515445,54.0806631 124.696562,53.5948252 124.696562,52.9919423 Z M124.597175,46.6139964 C124.837319,46.8385009 125.023481,47.1063928 125.15667,47.4186811 C125.289859,47.7299604 125.35595,48.0755459 125.35595,48.4534198 L125.35595,53.0227171 C125.35595,53.4010955 125.294905,53.7456721 125.171805,54.0574559 C125.049211,54.3697441 124.868094,54.637636 124.627445,54.862645 C124.387805,55.0871495 124.096706,55.2637261 123.753643,55.3918703 C123.411085,55.5195099 123.025643,55.5830775 122.59631,55.5830775 C122.146292,55.5830775 121.747733,55.5169874 121.400634,55.3837982 C121.052526,55.2511135 120.764454,55.0649514 120.5344,54.8243027 C120.304346,54.5841586 120.130796,54.3031495 120.013247,53.9807712 C119.895193,53.6588973 119.83667,53.3143207 119.83667,52.9460324 L119.83667,48.4534198 C119.83667,48.085636 119.90276,47.748627 120.03595,47.4418883 C120.168634,47.1351495 120.353283,46.8667532 120.587877,46.6366991 C120.822977,46.406645 121.109535,46.2275459 121.446544,46.0999063 C121.784058,45.9722667 122.162436,45.9081946 122.581175,45.9081946 C122.999914,45.9081946 123.380814,45.9697441 123.722868,46.0923387 C124.065932,46.2149333 124.357031,46.3884829 124.597175,46.6139964 Z M117.965968,46.0156541 C118.037607,46.0156541 118.073427,46.0514739 118.073427,46.122609 L118.073427,55.2919784 C118.073427,55.363618 118.055769,55.4120505 118.020454,55.4377802 C117.983625,55.4635099 117.940238,55.4761225 117.889787,55.4761225 L117.552274,55.4761225 C117.480634,55.4761225 117.429679,55.4655279 117.398905,55.4448432 C117.36813,55.4246631 117.342905,55.3943928 117.32222,55.3535279 C117.261175,55.2410234 117.117895,54.9806991 116.892886,54.5715459 C116.668382,54.1623928 116.402508,53.6821045 116.095769,53.1301766 C115.789031,52.5782486 115.464634,51.9879784 115.122076,51.3593658 C114.780022,50.7307532 114.455121,50.1404829 114.148886,49.588555 C113.842148,49.035618 113.576274,48.5583568 113.351769,48.1542486 C113.126256,47.750645 112.983481,47.4928432 112.922436,47.3798342 C112.881571,47.3192937 112.860886,47.3192937 112.860886,47.3798342 L112.860886,55.3535279 C112.860886,55.4352577 112.820022,55.4761225 112.738292,55.4761225 L112.324598,55.4761225 C112.252959,55.4761225 112.217139,55.4352577 112.217139,55.3535279 L112.217139,46.2149333 C112.217139,46.0817441 112.273139,46.0156541 112.385643,46.0156541 L112.738292,46.0156541 C112.809932,46.0156541 112.858364,46.0282667 112.884094,46.0534919 C112.909823,46.0797261 112.937067,46.1125189 112.968346,46.1533838 L117.36813,54.1578523 C117.409499,54.2188973 117.429679,54.2188973 117.429679,54.1578523 L117.429679,46.1382486 C117.429679,46.0565189 117.465499,46.0156541 117.537139,46.0156541 L117.965968,46.0156541 Z" fill="#FFFFFF"></path>
    </g>
</svg>